<?xml version="1.0" standalone="no"?>
<!DOCTYPE svg PUBLIC "-//W3C//DTD SVG 20010904//EN"
 "http://www.w3.org/TR/2001/REC-SVG-20010904/DTD/svg10.dtd">
<svg version="1.0" xmlns="http://www.w3.org/2000/svg"
 width="880.000000pt" height="850.000000pt" viewBox="0 0 880.000000 850.000000"
 preserveAspectRatio="xMidYMid meet">
<metadata>
Created by potrace 1.16, written by Peter Selinger 2001-2019
</metadata>
<g transform="translate(0.000000,850.000000) scale(0.100000,-0.100000)"
fill="#939598" stroke="none">
<path d="M7219 8075 c-73 -18 -155 -55 -226 -101 -60 -40 -393 -360 -393 -378
0 -6 287 -298 638 -648 l637 -637 193 189 c196 193 252 264 294 369 19 48 22
75 22 186 0 116 -3 138 -27 208 -69 198 -157 325 -369 533 -144 140 -174 165
-254 207 -124 64 -219 87 -353 86 -58 0 -131 -7 -162 -14z"/>
<path d="M657 7939 c-96 -23 -182 -94 -226 -188 l-26 -56 0 -3355 0 -3355 28
-56 c30 -63 93 -126 156 -159 23 -11 76 -25 119 -31 51 -6 1119 -9 3182 -7
l3105 3 58 23 c105 43 184 143 207 261 15 78 14 3094 -1 3089 -6 -2 -159 -145
-340 -318 l-329 -315 0 -950 c0 -897 -1 -952 -19 -990 -23 -51 -80 -101 -130
-115 -26 -7 -847 -9 -2628 -8 l-2590 3 -48 30 c-32 20 -56 45 -72 74 l-23 44
0 2774 c0 2481 2 2778 15 2811 21 49 52 81 100 103 38 18 110 19 1774 19
l1734 0 326 331 c179 182 328 335 329 340 5 12 -4651 10 -4701 -2z"/>
<path d="M4474 5478 c-1678 -1680 -1652 -1653 -1734 -1818 -88 -179 -140 -328
-280 -814 -121 -423 -146 -561 -119 -661 24 -87 89 -134 184 -135 171 -1 620
129 1220 353 197 73 301 126 410 209 28 20 763 748 1635 1617 l1585 1580 -640
641 c-352 352 -642 640 -645 640 -3 0 -730 -726 -1616 -1612z"/>
</g>
</svg>
