<?xml version="1.0" encoding="UTF-8" standalone="no"?>
<svg
   xmlns:dc="http://purl.org/dc/elements/1.1/"
   xmlns:cc="http://creativecommons.org/ns#"
   xmlns:rdf="http://www.w3.org/1999/02/22-rdf-syntax-ns#"
   xmlns:svg="http://www.w3.org/2000/svg"
   xmlns="http://www.w3.org/2000/svg"
   xmlns:sodipodi="http://sodipodi.sourceforge.net/DTD/sodipodi-0.dtd"
   xmlns:inkscape="http://www.inkscape.org/namespaces/inkscape"
   width="68.345894"
   height="68.345901"
   viewBox="0 0 68.345893 68.345899"
   version="1.1"
   id="svg4"
   sodipodi:docname="error-symbol.svg"
   inkscape:version="0.92.4 (5da689c313, 2019-01-14)">
  <metadata
     id="metadata10">
    <rdf:RDF>
      <cc:Work
         rdf:about="">
        <dc:format>image/svg+xml</dc:format>
        <dc:type
           rdf:resource="http://purl.org/dc/dcmitype/StillImage" />
        <dc:title></dc:title>
      </cc:Work>
    </rdf:RDF>
  </metadata>
  <defs
     id="defs8" />
  <sodipodi:namedview
     pagecolor="#ffffff"
     bordercolor="#666666"
     borderopacity="1"
     objecttolerance="10"
     gridtolerance="10"
     guidetolerance="10"
     inkscape:pageopacity="0"
     inkscape:pageshadow="2"
     inkscape:window-width="1920"
     inkscape:window-height="1017"
     id="namedview6"
     showgrid="false"
     inkscape:zoom="1.216182"
     inkscape:cx="-62.079335"
     inkscape:cy="-148.88768"
     inkscape:window-x="-8"
     inkscape:window-y="-8"
     inkscape:window-maximized="1"
     inkscape:current-layer="svg4"
     fit-margin-top="0"
     fit-margin-left="0"
     fit-margin-right="0"
     fit-margin-bottom="0" />
  <path
     d="M 51.793875,4.9343509 C 50.56654,4.9572265 49.395228,5.4522061 48.523421,6.3163975 L 6.3701648,48.618387 c -0.8615003,0.874469 -1.3529285,2.048069 -1.3720193,3.275468 -0.020766,1.289909 0.4827023,2.532523 1.3937447,3.445925 l 6.7397748,6.699667 h -0.0033 c 1.866262,1.839336 4.866503,1.829113 6.721393,-0.02172 L 61.964535,19.754169 c 1.845109,-1.860585 1.845109,-4.860807 0,-6.721393 v 0.0033 L 55.244813,6.3163975 C 54.328612,5.4081734 53.083715,4.9096113 51.793875,4.9343509 Z"
     id="path2"
     inkscape:connector-curvature="0"
     sodipodi:nodetypes="ccccccccccccc"
     style="stroke-width:0.85563225" />
  <path
     sodipodi:nodetypes="ccccccccccccc"
     inkscape:connector-curvature="0"
     id="path4545"
     d="M 63.411545,51.793878 C 63.388668,50.566543 62.89369,49.395231 62.029499,48.523423 L 19.727508,6.3701664 C 18.85304,5.5086661 17.67944,5.017238 16.452042,4.9981471 15.162133,4.9773809 13.919518,5.4808496 13.006118,6.3918918 L 6.3064493,13.131667 v -0.0033 C 4.4671134,14.994629 4.4773365,17.99487 6.3281743,19.84976 L 48.591728,61.964537 c 1.860585,1.845109 4.860807,1.845109 6.721392,0 h -0.0033 l 6.719715,-6.719721 c 0.908225,-0.916201 1.406786,-2.161099 1.382047,-3.450938 z"
     style="stroke-width:0.85563225" />
</svg>
