<svg id="Camada_2" data-name="Camada 2" xmlns="http://www.w3.org/2000/svg" width="152.42" height="17.93" viewBox="0 0 152.42 17.93">
  <g id="Camada_1" data-name="Camada 1">
    <path id="Caminho_97" data-name="Caminho 97" d="M65.385,17.595V3.514H62.129v9.5l-8.469-9.5H50.442V17.595h3.244v-9.6l8.443,9.6Zm67.072-8.032a1.57,1.57,0,0,0,1.8-1.609c0-.991-.656-1.557-1.8-1.557h-5.934V9.563ZM138,17.595h-3.861l-3.861-5.148H126.42v5.148H123.1V3.514h9.177c3.166,0,5.045,1.686,5.045,4.518a4.2,4.2,0,0,1-3.4,4.2ZM81.307,0c6.217,0,9.949,3.346,9.949,8.92,0,4.016-2.574,8.675-9.949,8.675H73.468V0ZM76.725,2.909V14.7h4.582c2.5,0,6.68-.772,6.68-5.946,0-3.72-2.433-5.843-6.68-5.843Zm66,11.8V12h7.5V9.113h-7.5V6.436h9.692V3.514H139.549V17.595H152.42V14.712Zm-31.47,0V12h7.491V9.113h-7.491V6.436h9.731V3.514H108.118V17.595h12.871V14.712Zm-15.1,0V12h7.491V9.113H96.16V6.436h9.679V3.514H92.968V17.595h12.871V14.712Zm-51.6-11.2v5.6H36.1v-5.6H32.86V17.595H36.1V12H44.56v5.6H47.8V3.514ZM22.6,15.1c-1.892,0-5.084-.579-5.084-4.531,0-2.832,1.853-4.453,5.084-4.453s5.148,1.622,5.148,4.453c0,3.951-3.179,4.531-5.148,4.531m-8.328-4.441c0,3.359,2.175,7.272,8.328,7.272s8.289-3.913,8.289-7.272c0-4.685-3.115-7.491-8.34-7.491s-8.328,2.806-8.328,7.491M0,14.248a12.871,12.871,0,0,0,3.861.669c2.2,0,3.578-.309,4.338-1.081a4.428,4.428,0,0,0,.862-3.3V0h3.282V10.992c0,4.865-2.394,6.938-7.851,6.938A22.023,22.023,0,0,1,0,17.5Z" fill="#fff"/>
  </g>
</svg>
