<svg xmlns="http://www.w3.org/2000/svg" width="71.746" height="65.213" viewBox="0 0 71.746 65.213">
  <g id="Camada_2" data-name="Camada 2" transform="translate(-0.01 -0.002)">
    <g id="Camada_1" data-name="Camada 1" transform="translate(0.01 0.002)">
      <path id="Caminho_95" data-name="Caminho 95" d="M66.647,7.053a70.6,70.6,0,0,0-61.579.034,66.908,66.908,0,0,0,0,51.04,69.665,69.665,0,0,0,30.823,7.088,70.241,70.241,0,0,0,30.79-7.038,66.823,66.823,0,0,0,5.075-25.562A66.451,66.451,0,0,0,66.681,7.053" transform="translate(-0.01 -0.002)" fill="#547a32"/>
      <path id="Caminho_96" data-name="Caminho 96" d="M25,24.138a29.47,29.47,0,0,0-2.927,10.015l-.88.085a33.97,33.97,0,0,0-9.389,1.692l.22,1.252a43.038,43.038,0,0,0,12.789,10.15L25,47.145l-1.692-2.639a4.94,4.94,0,0,0-1.455-.541c-3.383-1.15-5.87-5.667-6.276-6.429a23.684,23.684,0,0,1,7.748,1.692,30.874,30.874,0,0,0,4.652,1.286,29.318,29.318,0,0,0,8.154-.491A33.835,33.835,0,0,1,42.26,39.9a17.289,17.289,0,0,0,4.4,3.925,93.451,93.451,0,0,0,10.3,3.671,29.537,29.537,0,0,1,4.754,6.344,65.064,65.064,0,0,1-26.983,5.836,64.912,64.912,0,0,1-27.068-5.9,61.934,61.934,0,0,1,0-44.509,65.267,65.267,0,0,1,54.135,0,61.629,61.629,0,0,1,4.162,22.3,61.173,61.173,0,0,1-3.383,20.4,65.026,65.026,0,0,0-3.7-5.955,48.672,48.672,0,0,1-4.652-2.741,7.325,7.325,0,0,1-1.489-3.383,14.8,14.8,0,0,0-3.265-6.767l2.233-.9c-.626-4.3-5.7-7.088-5.752-7.122l-.288.135a9.93,9.93,0,0,1,2.5,5.769,4.585,4.585,0,0,1-.152,1.252c-.575-.22-4.331-1.421-12.874-1.1a5.752,5.752,0,0,1-4.128-1.066,3.383,3.383,0,0,1-.914-2.5h0a30.045,30.045,0,0,1,1.438-7.511l2.233.271a12.485,12.485,0,0,0,3.84-2.944l-.135-.135c-2.267.3-5.227.9-5.227.9A12.3,12.3,0,0,0,33.04,14a6.039,6.039,0,0,0-3.383-5.769l-.288.068a6.378,6.378,0,0,1,1.539,3.942,5.075,5.075,0,0,1-.423,2.013,4.872,4.872,0,0,0-2.25-.44,6.429,6.429,0,0,0-4.179-4.043l-.254.152a5.853,5.853,0,0,1,2.385,3.959,11.284,11.284,0,0,0-2.994.626,4.72,4.72,0,0,0-3.57-1.878l-.22.169s2,.694,2.436,2.2a16.731,16.731,0,0,0-3.383,2.115v.321c5.075-1.979,9.846-2.555,11.064-1.117a1.286,1.286,0,0,1,.3.863,3.079,3.079,0,0,1-.491,1.472,75.823,75.823,0,0,0-9.372,2.791l.406,1.3,4.3.88s.44,0,.22.508M63.271,7.9a67.838,67.838,0,0,0-57.214,0,64.2,64.2,0,0,0,0,47.182A66.959,66.959,0,0,0,34.8,61.508a67.094,67.094,0,0,0,28.607-6.327A63.8,63.8,0,0,0,67.889,31.5a64,64,0,0,0-4.5-23.684" transform="translate(1.065 1.083)" fill="#f7e100"/>
    </g>
  </g>
</svg>
